# xmcd
#
# Track frame offsets: 
#        151
#        16246
#        27747
#        46894
#        60357
#        78682
#        92811
#        109526
#        129723
#        151180
#
# Disc length: 2378 seconds
#
# Revision: 0
# Processed by: cddbd v1.5.2PL0 Copyright (c) Steve Scherf et al.
# Submitted via: ExactAudioCopy v0.99pb5
#
DISCID=7709480a
DTITLE=Chuck Lancaster - Call It What You Will
DYEAR=2012
DGENRE=Blues
TTITLE0=Bad Boy Blues
TTITLE1=Do It
TTITLE2=It's Over
TTITLE3=Hot Rod
TTITLE4=Bad Love
TTITLE5=Don't Get Better Than This
TTITLE6=White Lightin'
TTITLE7=Somebody Blues
TTITLE8=Fire Below
TTITLE9=Take Her Home
EXTD=
EXTT0=
EXTT1=
EXTT2=
EXTT3=
EXTT4=
EXTT5=
EXTT6=
EXTT7=
EXTT8=
EXTT9=
PLAYORDER=
